<svg width="396" height="161" viewBox="0 0 396 161" fill="none" xmlns="http://www.w3.org/2000/svg">
<path d="M24.9766 54.3457H9.38794L5.67912 65.588H0.927204L14.4876 25.0228H20.1667L33.8429 65.588H28.8013L24.9766 54.3457ZM10.8946 50.1733H23.6437L17.6748 31.1076H16.9794L10.8946 50.1733ZM65.1134 67.0368C65.1134 68.8525 64.7657 70.4365 64.0703 71.7887C63.3749 73.1795 62.4091 74.3192 61.1728 75.2078C59.9752 76.0963 58.565 76.7531 56.9424 77.1781C55.3198 77.6417 53.562 77.8735 51.669 77.8735C49.3896 77.8735 47.4 77.6417 45.7001 77.1781C44.0002 76.7145 42.5321 76.1156 41.2959 75.3816L43.498 71.2671C43.8457 71.5762 44.29 71.866 44.8308 72.1364C45.4103 72.4455 46.0671 72.7159 46.8011 72.9477C47.5352 73.2181 48.3079 73.4306 49.1192 73.5851C49.9691 73.7397 50.7997 73.8169 51.611 73.8169C53.3109 73.8169 54.721 73.6624 55.8414 73.3533C57.0004 73.0443 57.9276 72.5614 58.623 71.9046C59.3184 71.2478 59.8206 70.3979 60.1297 69.3548C60.4388 68.3117 60.5933 67.0368 60.5933 65.5301V62.2848H60.3615C59.4729 63.5598 58.3332 64.5449 56.9424 65.2403C55.5516 65.9357 53.7552 66.2834 51.5531 66.2834C47.1489 66.2834 43.9036 65.0665 41.8174 62.6326C39.7699 60.16 38.7461 56.3353 38.7461 51.1584C38.7461 46.2133 40.0596 42.4852 42.6867 39.974C45.3138 37.4242 49.2157 36.1493 54.3926 36.1493C56.7879 36.1493 58.8162 36.3231 60.4774 36.6708C62.1773 36.9799 63.7226 37.3856 65.1134 37.8878V67.0368ZM52.1905 62.4007C54.5472 62.4007 56.4016 61.8019 57.7537 60.6043C59.1059 59.368 60.0524 57.4943 60.5933 54.9831V41.2489C58.8934 40.4376 56.5175 40.032 53.4654 40.032C50.3747 40.032 47.9408 40.9398 46.1637 42.7556C44.3866 44.5714 43.498 47.353 43.498 51.1005C43.498 52.7617 43.6525 54.2877 43.9616 55.6785C44.2707 57.0307 44.7536 58.209 45.4103 59.2135C46.1057 60.218 46.9943 61.0099 48.0761 61.5894C49.1964 62.1303 50.5679 62.4007 52.1905 62.4007ZM100.151 61.9371C99.4553 62.5553 98.6247 63.1348 97.6588 63.6757C96.7316 64.2165 95.7078 64.6801 94.5875 65.0665C93.4671 65.4528 92.2888 65.7425 91.0525 65.9357C89.8549 66.1675 88.6379 66.2834 87.4016 66.2834C85.0836 66.2834 83.036 65.9357 81.2589 65.2403C79.4818 64.5063 77.9944 63.4825 76.7967 62.1689C75.5991 60.8168 74.6912 59.2135 74.0731 57.3591C73.4549 55.5047 73.1459 53.4185 73.1459 51.1005C73.1459 48.6665 73.4743 46.5031 74.131 44.61C74.8264 42.717 75.8116 41.133 77.0865 39.8581C78.3614 38.5832 79.9067 37.6174 81.7225 36.9606C83.5383 36.2652 85.5665 35.9175 87.8073 35.9175C89.4299 35.9175 91.0332 36.13 92.6171 36.5549C94.2011 36.9799 95.5919 37.7912 96.7896 38.9889C98.0258 40.1479 98.9724 41.7705 99.6291 43.8567C100.286 45.9042 100.518 48.57 100.325 51.8538H77.8978C77.8978 55.3308 78.825 57.9386 80.6794 59.6771C82.5724 61.377 85.0836 62.2269 88.2129 62.2269C89.256 62.2269 90.2798 62.111 91.2843 61.8792C92.3274 61.6088 93.3125 61.2997 94.2398 60.952C95.167 60.6043 95.9783 60.218 96.6737 59.793C97.4077 59.368 97.9679 58.9817 98.3542 58.634L100.151 61.9371ZM87.9232 39.7422C86.6483 39.7422 85.4313 39.8774 84.2723 40.1479C83.1519 40.4183 82.1475 40.8819 81.2589 41.5387C80.409 42.1568 79.6942 42.9874 79.1147 44.0305C78.5739 45.035 78.2262 46.2906 78.0716 47.7973H96.0942C95.901 45.2475 95.0704 43.2772 93.6023 41.8864C92.1729 40.4569 90.2798 39.7422 87.9232 39.7422ZM109.632 46.7542C109.632 46.4065 109.613 45.9622 109.574 45.4213C109.574 44.8418 109.555 44.2623 109.516 43.6828C109.477 43.0647 109.419 42.4659 109.342 41.8864C109.303 41.3069 109.246 40.8046 109.168 40.3797H105.286V36.6129H113.051L113.572 41.3069H113.862C114.249 40.6501 114.751 40.0126 115.369 39.3945C116.026 38.7377 116.779 38.1582 117.629 37.656C118.479 37.1151 119.425 36.6902 120.469 36.3811C121.512 36.072 122.613 35.9175 123.772 35.9175C125.549 35.9175 127.114 36.1107 128.466 36.497C129.857 36.8833 130.996 37.5787 131.885 38.5832C132.812 39.549 133.507 40.8819 133.971 42.5818C134.435 44.243 134.666 46.3679 134.666 48.9563V65.588H130.146V49.8255C130.146 46.619 129.625 44.2044 128.582 42.5818C127.539 40.9592 125.645 40.1479 122.902 40.1479C121.898 40.1479 120.913 40.3603 119.947 40.7853C119.02 41.1716 118.17 41.6932 117.397 42.35C116.625 43.0067 115.948 43.7794 115.369 44.668C114.789 45.5179 114.364 46.4258 114.094 47.3916V65.588H109.632V46.7542ZM159.215 25.0228H168.603V55.6785C168.603 56.0262 168.622 56.4705 168.661 57.0114C168.699 57.5136 168.738 58.0545 168.776 58.634C168.854 59.2135 168.931 59.793 169.008 60.3725C169.085 60.9134 169.163 61.3963 169.24 61.8212H173.123V65.588H165.415L164.836 61.1258H164.604C163.754 62.5939 162.479 63.8302 160.779 64.8347C159.118 65.8005 157.186 66.2834 154.984 66.2834C150.619 66.2834 147.393 65.0665 145.307 62.6326C143.259 60.16 142.235 56.3353 142.235 51.1584C142.235 48.7245 142.583 46.5803 143.278 44.7259C143.974 42.8329 144.959 41.2682 146.234 40.032C147.547 38.7571 149.112 37.7912 150.928 37.1344C152.744 36.4777 154.772 36.1493 157.013 36.1493C157.824 36.1493 158.539 36.1686 159.157 36.2072C159.813 36.2459 160.412 36.3038 160.953 36.3811C161.494 36.4584 161.996 36.5743 162.46 36.7288C162.962 36.8447 163.503 36.9799 164.082 37.1344V28.9055H159.215V25.0228ZM155.738 62.4007C158.094 62.4007 159.949 61.8019 161.301 60.6043C162.653 59.368 163.58 57.5329 164.082 55.099V41.6546C163.233 41.0751 162.267 40.6501 161.185 40.3797C160.142 40.1092 158.751 39.974 157.013 39.974C153.922 39.974 151.488 40.8819 149.711 42.6977C147.934 44.4748 147.045 47.2951 147.045 51.1584C147.045 52.7424 147.18 54.2298 147.451 55.6206C147.76 56.9727 148.243 58.1511 148.899 59.1555C149.595 60.16 150.503 60.952 151.623 61.5315C152.744 62.111 154.115 62.4007 155.738 62.4007ZM191.76 61.1258H193.962L201.148 36.6129H205.842L197.787 62.6326C197.362 63.9847 196.918 65.5107 196.454 67.2106C196.029 68.9491 195.411 70.5717 194.6 72.0784C193.788 73.5851 192.687 74.86 191.296 75.9032C189.906 76.9463 188.09 77.4678 185.849 77.4678C185.347 77.4678 184.806 77.4099 184.226 77.294C183.686 77.1781 183.145 77.0235 182.604 76.8304C182.063 76.6758 181.561 76.4827 181.097 76.2509C180.634 76.0191 180.286 75.7873 180.054 75.5555L181.677 71.383C181.908 71.5762 182.218 71.7694 182.604 71.9625C183.029 72.1557 183.473 72.3102 183.937 72.4261C184.439 72.5807 184.922 72.6966 185.385 72.7738C185.849 72.8897 186.235 72.9477 186.545 72.9477C189.442 72.9477 191.412 70.4945 192.455 65.588H188.573L176.403 36.6129H181.619L191.76 61.1258Z" fill="#602A2B"/>
<path d="M62.0379 103.172L58.9086 97.3189H58.6768L59.2563 103.172V128.554H54.7362V87.9889H57.8655L74.2075 113.255L77.2209 118.818H77.5106L76.8732 113.255V87.9889H81.3933V128.554H78.264L62.0379 103.172ZM91.6858 101.839C93.3471 100.873 95.2208 100.178 97.307 99.7528C99.3932 99.3278 101.441 99.1154 103.45 99.1154C105.42 99.1154 107.023 99.4244 108.26 100.043C109.534 100.661 110.52 101.472 111.215 102.476C111.949 103.442 112.432 104.563 112.664 105.838C112.934 107.074 113.069 108.329 113.069 109.604C113.069 111.072 113.031 112.637 112.954 114.298C112.876 115.96 112.818 117.621 112.78 119.282C112.78 121.214 112.896 123.049 113.127 124.787H117.01V128.554H109.303L108.781 124.208H108.491C108.26 124.556 107.912 125 107.448 125.541C106.985 126.082 106.367 126.622 105.594 127.163C104.86 127.666 103.952 128.11 102.87 128.496C101.788 128.882 100.514 129.076 99.0455 129.076C96.1866 129.076 93.9266 128.342 92.2653 126.874C90.6041 125.405 89.7735 123.397 89.7735 120.847C89.7735 118.876 90.1984 117.234 91.0484 115.921C91.9369 114.607 93.1925 113.603 94.8151 112.908C96.4377 112.212 98.3887 111.806 100.668 111.691C102.986 111.575 105.575 111.729 108.433 112.154C108.627 110.377 108.646 108.909 108.491 107.75C108.375 106.552 108.066 105.606 107.564 104.91C107.101 104.215 106.424 103.732 105.536 103.462C104.686 103.153 103.624 102.998 102.349 102.998C100.61 102.998 98.9489 103.249 97.3649 103.751C95.781 104.215 94.3708 104.698 93.1346 105.2L91.6858 101.839ZM100.204 125.193C101.286 125.193 102.291 125.019 103.218 124.671C104.145 124.324 104.956 123.879 105.652 123.339C106.347 122.798 106.927 122.218 107.39 121.6C107.854 120.943 108.202 120.325 108.433 119.746V115.689C106.424 115.341 104.57 115.168 102.87 115.168C101.17 115.168 99.7023 115.361 98.466 115.747C97.2297 116.095 96.2639 116.655 95.5685 117.428C94.8731 118.2 94.5254 119.205 94.5254 120.441C94.5254 121.716 94.9503 122.836 95.8003 123.802C96.6889 124.729 98.1569 125.193 100.204 125.193ZM126.259 128.554V124.671H136.343V103.462H126.259V99.579H140.979V124.671H150.83V128.554H126.259ZM134.778 91.35C134.778 90.3069 135.126 89.4184 135.821 88.6843C136.517 87.9116 137.405 87.5253 138.487 87.5253C139.607 87.5253 140.535 87.9116 141.269 88.6843C142.041 89.4184 142.428 90.3069 142.428 91.35C142.428 92.3545 142.041 93.2044 141.269 93.8998C140.535 94.5952 139.607 94.9429 138.487 94.9429C137.405 94.9429 136.517 94.5952 135.821 93.8998C135.126 93.2044 134.778 92.3545 134.778 91.35ZM158.979 87.9889H168.598V118.818C168.598 121.175 168.985 122.836 169.757 123.802C170.569 124.768 171.747 125.251 173.292 125.251C174.374 125.251 175.475 125.038 176.596 124.613C177.716 124.188 178.74 123.59 179.667 122.817L181.753 125.888C181.135 126.429 180.459 126.912 179.725 127.337C178.991 127.762 178.238 128.129 177.465 128.438C176.692 128.709 175.919 128.921 175.147 129.076C174.374 129.23 173.659 129.307 173.003 129.307C171.573 129.307 170.298 129.114 169.178 128.728C168.058 128.38 167.111 127.801 166.338 126.989C165.604 126.178 165.044 125.116 164.658 123.802C164.271 122.45 164.078 120.789 164.078 118.818V91.8716H158.979V87.9889ZM215.052 120.731C215.052 119.495 214.569 118.548 213.603 117.891C212.637 117.196 211.44 116.655 210.01 116.269C208.581 115.844 207.016 115.457 205.316 115.11C203.655 114.762 202.11 114.298 200.68 113.719C199.251 113.139 198.053 112.367 197.087 111.401C196.121 110.396 195.639 109.006 195.639 107.228C195.639 105.76 195.948 104.505 196.566 103.462C197.223 102.419 198.072 101.569 199.116 100.912C200.159 100.216 201.376 99.7142 202.766 99.4051C204.157 99.0574 205.606 98.8836 207.113 98.8836C209.817 98.8836 212.135 99.2313 214.067 99.9267C216.037 100.583 217.602 101.279 218.761 102.013L216.906 105.664C215.631 104.968 214.241 104.312 212.734 103.693C211.266 103.037 209.411 102.708 207.171 102.708C206.321 102.708 205.471 102.805 204.621 102.998C203.81 103.153 203.056 103.404 202.361 103.751C201.704 104.099 201.163 104.563 200.738 105.142C200.352 105.683 200.159 106.359 200.159 107.17C200.159 108.175 200.642 108.948 201.607 109.488C202.573 110.029 203.771 110.493 205.2 110.879C206.63 111.227 208.175 111.575 209.836 111.922C211.536 112.231 213.101 112.695 214.53 113.313C215.96 113.931 217.157 114.762 218.123 115.805C219.089 116.848 219.572 118.258 219.572 120.035C219.572 122.701 218.51 124.903 216.385 126.642C214.299 128.38 211.15 129.249 206.939 129.249C205.664 129.249 204.408 129.134 203.172 128.902C201.936 128.67 200.777 128.361 199.695 127.975C198.613 127.588 197.628 127.163 196.74 126.7C195.851 126.197 195.117 125.695 194.538 125.193L196.856 121.426C197.319 121.89 197.937 122.373 198.71 122.875C199.483 123.339 200.333 123.764 201.26 124.15C202.187 124.536 203.172 124.845 204.215 125.077C205.297 125.309 206.379 125.425 207.46 125.425C208.504 125.425 209.469 125.347 210.358 125.193C211.285 125 212.096 124.729 212.792 124.382C213.487 123.995 214.028 123.512 214.414 122.933C214.839 122.315 215.052 121.581 215.052 120.731Z" fill="#602A2B"/>
<path d="M324.175 159.735C324.175 159.735 321.109 122.523 296.915 116.518C296.037 116.301 295.131 116.228 294.224 116.235C290.455 116.261 279.815 116.274 275.68 115.639C275.68 115.639 233.077 79.4957 233.377 77.5489C233.674 75.5984 237.744 75.0146 241.419 76.768C245.093 78.5214 258.005 87.7774 258.005 87.7774L259.494 87.6789C259.494 87.6789 260.884 58.4548 264.459 57.4804C268.034 56.5061 269.027 62.8374 268.828 68.3914C268.631 73.9435 268.631 80.9572 268.631 80.9572C268.631 80.9572 278.163 59.4272 280.049 59.5258C281.937 59.6225 283.427 64.2021 281.342 71.0206C279.257 77.839 278.064 81.4443 278.064 81.4443C278.064 81.4443 285.214 71.3125 286.404 71.3125C286.404 71.3125 289.086 71.9949 286.404 77.6456C283.724 83.2945 280.447 89.9195 280.447 89.9195C280.447 89.9195 293.082 90.5435 301.29 90.8044C309.5 91.0635 320.356 94.1817 326.161 105.832C329.704 112.942 362.044 159.735 362.044 159.735" fill="white"/>
<path d="M324.175 159.735C324.175 159.735 321.11 122.523 296.915 116.518C296.037 116.301 295.131 116.228 294.224 116.235C290.455 116.261 279.815 116.274 275.68 115.639C275.68 115.639 233.077 79.4957 233.377 77.5489C233.674 75.5984 237.744 75.0146 241.419 76.768C245.093 78.5214 258.005 87.7774 258.005 87.7774L259.494 87.6789C259.494 87.6789 260.884 58.4548 264.459 57.4804C268.034 56.5061 269.027 62.8374 268.828 68.3914C268.631 73.9435 268.631 80.9572 268.631 80.9572C268.631 80.9572 278.163 59.4272 280.049 59.5258C281.937 59.6225 283.427 64.2021 281.342 71.0206C279.257 77.839 278.064 81.4443 278.064 81.4443C278.064 81.4443 285.214 71.3125 286.404 71.3125C286.404 71.3125 289.086 71.9949 286.404 77.6456C283.724 83.2945 280.447 89.9195 280.447 89.9195C280.447 89.9195 293.082 90.5435 301.29 90.8044C309.5 91.0635 320.356 94.1817 326.161 105.832C329.704 112.942 362.044 159.735 362.044 159.735" stroke="#4D0E10" stroke-width="2.28234" stroke-miterlimit="10" stroke-linecap="round" stroke-linejoin="round"/>
<path d="M280.447 89.927C280.447 89.927 257.11 86.0316 254.826 89.927C252.542 93.8243 258.005 96.1616 260.983 97.2326C262.906 97.9259 270.998 99.5918 276.493 100.685C279.368 101.259 282.093 102.363 284.572 103.905C287.902 105.974 294.155 108.521 303.286 106.781" stroke="#4D0E10" stroke-width="2.28234" stroke-miterlimit="10" stroke-linecap="round" stroke-linejoin="round"/>
<path d="M259.597 89.1604C263.235 89.6329 265.962 91.1473 265.45 93.5193C264.965 95.7872 261.836 96.1612 258.301 95.1906C254.72 94.2089 252.122 92.3388 252.445 90.8317C252.762 89.3629 255.92 88.6823 259.597 89.1604Z" fill="#CE212A"/>
<path d="M259.597 89.1604C263.235 89.6329 265.962 91.1473 265.45 93.5193C264.965 95.7872 261.836 96.1612 258.301 95.1906C254.72 94.2089 252.122 92.3388 252.445 90.8317C252.762 89.3629 255.92 88.6823 259.597 89.1604V89.1604Z" stroke="#4D0E10" stroke-width="2.28234" stroke-miterlimit="10"/>
<path d="M266.516 60.1499C266.516 64.1822 265.534 65.2094 263.598 65.0288C261.748 64.8554 261.686 62.509 261.973 59.6883C262.294 56.5135 262.914 54.6944 264.143 54.8094C265.343 54.9225 266.516 57.2871 266.516 60.1499Z" fill="#CE212A"/>
<path d="M266.516 60.1499C266.516 64.1822 265.534 65.2094 263.598 65.0288C261.748 64.8554 261.686 62.509 261.973 59.6883C262.294 56.5135 262.914 54.6944 264.143 54.8094C265.343 54.9225 266.516 57.2871 266.516 60.1499Z" stroke="#4D0E10" stroke-width="2.28234" stroke-miterlimit="10"/>
<path d="M237.927 77.0998C241.13 79.6287 241.329 81.0227 239.973 82.3893C238.671 83.6957 236.772 82.2707 234.711 80.2837C232.392 78.0468 231.334 76.4339 232.199 75.5654C233.039 74.7188 235.653 75.3044 237.927 77.0998Z" fill="#CE212A"/>
<path d="M237.927 77.0998C241.13 79.6287 241.329 81.0227 239.973 82.3893C238.671 83.6957 236.772 82.2707 234.711 80.2837C232.392 78.0468 231.334 76.4339 232.199 75.5654C233.039 74.7188 235.653 75.3044 237.927 77.0998V77.0998Z" stroke="#4D0E10" stroke-width="2.28234" stroke-miterlimit="10"/>
<path d="M281.431 63.2876C280.367 66.9258 279.21 67.6027 277.512 66.9477C275.887 66.3219 276.45 64.1908 277.453 61.7185C278.58 58.936 279.616 57.4508 280.696 57.8668C281.749 58.2737 282.184 60.704 281.431 63.2876Z" fill="#CE212A"/>
<path d="M281.431 63.2876C280.367 66.9258 279.21 67.6027 277.512 66.9477C275.887 66.3219 276.45 64.1908 277.453 61.7185C278.58 58.936 279.616 57.4508 280.696 57.8668C281.749 58.2737 282.184 60.704 281.431 63.2876V63.2876Z" stroke="#4D0E10" stroke-width="2.28234" stroke-miterlimit="10"/>
<path d="M286.882 74.1625C285.684 76.2608 284.868 76.5162 283.914 75.8685C283.002 75.2481 283.666 74.0111 284.654 72.6244C285.762 71.0644 286.624 70.2926 287.23 70.7049C287.823 71.1064 287.732 72.6737 286.882 74.1625Z" fill="#CE212A"/>
<path d="M286.882 74.1625C285.684 76.2608 284.868 76.5162 283.914 75.8685C283.002 75.2481 283.666 74.0111 284.654 72.6244C285.762 71.0644 286.624 70.2926 287.23 70.7049C287.823 71.1064 287.732 72.6737 286.882 74.1625V74.1625Z" stroke="#4D0E10" stroke-width="2.28234" stroke-miterlimit="10"/>
<path d="M268.766 80.1104L268.331 88.1841L268.766 80.1104Z" fill="#CE212A"/>
<path d="M268.766 80.1104L268.331 88.1841" stroke="#4D0E10" stroke-width="2.28234" stroke-miterlimit="10"/>
<path d="M278.066 81.4424L275.508 89.2023" stroke="#4D0E10" stroke-width="2.28234" stroke-miterlimit="10"/>
<path d="M301.724 1.99996C301.724 1.99996 304.789 39.2121 328.984 45.2168C329.862 45.4339 330.768 45.5069 331.675 45.4996C335.445 45.474 346.086 45.4612 350.219 46.0962C350.219 46.0962 392.822 82.2391 392.522 84.1859C392.225 86.1346 388.155 86.7203 384.48 84.9669C380.806 83.2116 367.896 73.9574 367.896 73.9574L366.404 74.0559C366.404 74.0559 365.015 103.28 361.44 104.254C357.867 105.229 356.872 98.8956 357.071 93.3435C357.27 87.7913 357.27 80.7776 357.27 80.7776C357.27 80.7776 347.736 102.306 345.85 102.209C343.962 102.111 342.472 97.5327 344.557 90.7143C346.644 83.894 347.836 80.2905 347.836 80.2905C347.836 80.2905 340.685 90.4205 339.495 90.4205C339.495 90.4205 336.812 89.7399 339.495 84.0892C342.175 78.4404 345.452 71.8153 345.452 71.8153C345.452 71.8153 332.819 71.1895 324.609 70.9304C316.399 70.6713 305.543 67.5532 299.74 55.9033C296.196 48.7929 263.857 1.99996 263.857 1.99996" fill="white"/>
<path d="M301.724 1.99996C301.724 1.99996 304.789 39.2121 328.984 45.2168C329.862 45.4339 330.768 45.5069 331.675 45.4996C335.445 45.474 346.086 45.4612 350.219 46.0962C350.219 46.0962 392.822 82.2391 392.522 84.1859C392.225 86.1346 388.155 86.7203 384.48 84.9669C380.806 83.2116 367.896 73.9574 367.896 73.9574L366.404 74.0559C366.404 74.0559 365.015 103.28 361.44 104.254C357.867 105.229 356.872 98.8956 357.071 93.3435C357.27 87.7913 357.27 80.7776 357.27 80.7776C357.27 80.7776 347.736 102.306 345.85 102.209C343.962 102.111 342.472 97.5327 344.557 90.7143C346.644 83.894 347.836 80.2905 347.836 80.2905C347.836 80.2905 340.685 90.4205 339.495 90.4205C339.495 90.4205 336.812 89.7399 339.495 84.0892C342.175 78.4404 345.452 71.8153 345.452 71.8153C345.452 71.8153 332.819 71.1895 324.609 70.9304C316.399 70.6713 305.543 67.5531 299.74 55.9033C296.196 48.7929 263.857 1.99996 263.857 1.99996" stroke="#4D0E10" stroke-width="2.28234" stroke-miterlimit="10" stroke-linecap="round" stroke-linejoin="round"/>
<path d="M345.452 71.8272C345.452 71.8272 368.791 75.7245 371.073 71.8272C373.359 67.9299 367.896 65.5926 364.916 64.5216C362.993 63.8301 354.9 62.1624 349.408 61.0695C346.531 60.4966 343.806 59.3909 341.326 57.8492C337.997 55.7801 331.744 53.233 322.613 54.9736" stroke="#4D0E10" stroke-width="2.28234" stroke-miterlimit="10" stroke-linecap="round" stroke-linejoin="round"/>
<path d="M366.283 72.575C362.643 72.1024 359.918 70.5862 360.428 68.2142C360.913 65.9481 364.044 65.5741 367.578 66.5429C371.158 67.5264 373.758 69.3966 373.433 70.9036C373.118 72.3724 369.958 73.0512 366.283 72.575Z" fill="#CE212A"/>
<path d="M366.283 72.575C362.643 72.1024 359.918 70.5862 360.428 68.2142C360.913 65.9481 364.044 65.5741 367.578 66.5429C371.158 67.5264 373.758 69.3966 373.433 70.9036C373.118 72.3724 369.958 73.0512 366.283 72.575V72.575Z" stroke="#4D0E10" stroke-width="2.28234" stroke-miterlimit="10"/>
<path d="M359.383 101.604C359.383 97.5715 360.365 96.5443 362.301 96.7249C364.154 96.8982 364.213 99.2446 363.927 102.065C363.605 105.24 362.988 107.059 361.756 106.944C360.557 106.831 359.383 104.467 359.383 101.604Z" fill="#CE212A"/>
<path d="M359.383 101.604C359.383 97.5715 360.365 96.5443 362.301 96.7249C364.154 96.8982 364.213 99.2446 363.927 102.065C363.605 105.24 362.988 107.059 361.756 106.944C360.557 106.831 359.383 104.467 359.383 101.604Z" stroke="#4D0E10" stroke-width="2.28234" stroke-miterlimit="10"/>
<path d="M387.97 84.6534C384.767 82.1245 384.568 80.7305 385.926 79.3639C387.226 78.0575 389.125 79.4825 391.186 81.4695C393.507 83.7064 394.564 85.3193 393.701 86.1878C392.858 87.0344 390.245 86.4487 387.97 84.6534Z" fill="#CE212A"/>
<path d="M387.97 84.6534C384.767 82.1245 384.568 80.7305 385.926 79.3639C387.226 78.0575 389.125 79.4825 391.186 81.4695C393.507 83.7064 394.564 85.3193 393.701 86.1878C392.858 87.0344 390.245 86.4487 387.97 84.6534V84.6534Z" stroke="#4D0E10" stroke-width="2.28234" stroke-miterlimit="10"/>
<path d="M344.448 98.4474C345.512 94.8092 346.669 94.1323 348.367 94.7873C349.993 95.4131 349.429 97.5442 348.428 100.017C347.299 102.799 346.263 104.284 345.185 103.868C344.13 103.463 343.695 101.031 344.448 98.4474Z" fill="#CE212A"/>
<path d="M344.448 98.4474C345.512 94.8092 346.669 94.1323 348.367 94.7873C349.993 95.4131 349.429 97.5442 348.428 100.017C347.299 102.799 346.263 104.284 345.185 103.868C344.13 103.463 343.695 101.031 344.448 98.4474V98.4474Z" stroke="#4D0E10" stroke-width="2.28234" stroke-miterlimit="10"/>
<path d="M338.998 87.5912C340.196 85.493 341.013 85.2375 341.967 85.8853C342.878 86.5056 342.214 87.7427 341.227 89.1294C340.118 90.6894 339.257 91.4612 338.651 91.0488C338.059 90.6474 338.15 89.0819 338.998 87.5912Z" fill="#CE212A"/>
<path d="M338.998 87.5912C340.196 85.493 341.013 85.2375 341.967 85.8853C342.878 86.5056 342.214 87.7427 341.227 89.1294C340.118 90.6894 339.257 91.4612 338.651 91.0488C338.059 90.6474 338.15 89.0819 338.998 87.5912V87.5912Z" stroke="#4D0E10" stroke-width="2.28234" stroke-miterlimit="10"/>
<path d="M357.132 81.625L357.569 73.5513L357.132 81.625Z" fill="#CE212A"/>
<path d="M357.132 81.625L357.569 73.5513" stroke="#4D0E10" stroke-width="2.28234" stroke-miterlimit="10"/>
<path d="M347.832 80.293L350.389 72.5331" stroke="#4D0E10" stroke-width="2.28234" stroke-miterlimit="10"/>
</svg>
